<svg xmlns="http://www.w3.org/2000/svg" viewBox="0 0 2962 1735"><g><path d="M2645.2257,283.3287c-339.9827,0 -659.8349,-36.2585 -900.9307,-102.1832c-119.2529,-32.6091 -213.5487,-70.9867 -280.1797,-114.0732c-24.3686,-15.7748 -52.1511,-36.2585 -76.0488,-64.1588c-3.414,-3.8848 -9.3001,-3.8848 -12.714,0c-23.8977,27.7825 -51.6802,48.384 -76.0488,64.1588c-66.631,43.0865 -160.9267,81.464 -280.1797,114.0732c-241.0958,65.9246 -560.948,102.1832 -900.9307,102.1832c-36.8472,0 -73.4589,-0.4709 -109.8351,-1.2949c-4.5912,0 -8.3583,3.5317 -8.3583,8.1229l0,1435.6265c0,4.4735 3.6494,8.2406 8.2406,8.2406l2945.4182,0c4.4735,0 8.2406,-3.6494 8.2406,-8.2406l0,-1444.5734c0,-4.7089 -4.0026,-8.476 -8.7115,-8.1229c-99.5933,6.7102 -202.836,10.2419 -307.9622,10.2419Z" style="fill:#171512;fill-rule:nonzero;"/><path d="M955.7894,859.9338c7.0634,6.7102 46.3827,46.1472 46.3827,93.8249c0,47.6776 -39.4371,87.2324 -46.3827,93.8249c-0.5886,0.5886 -1.5304,0.5886 -2.119,0c-7.0634,-6.7102 -46.3827,-46.1472 -46.3827,-93.8249c0,-47.6776 39.4371,-87.2324 46.3827,-93.8249c0.5886,-0.5886 1.5304,-0.5886 2.119,0Zm-560.4771,622.046l-0.1177,0c17.1875,4.7089 26.2521,17.5407 26.2521,33.6686c0,23.4268 -16.7166,41.9092 -53.2106,41.9092l-117.4871,0l0,-144.9165l117.4871,0c29.0775,0 45.5586,14.9508 45.5586,37.318c0,12.9495 -6.2393,26.2521 -18.4824,32.0205Zm-31.7851,42.9687c9.3001,0 17.6584,-2.8253 17.6584,-13.0672c0,-10.2419 -8.476,-13.3026 -17.6584,-13.3026l-77.6969,0l0,26.3699l77.6969,0Zm-77.8146,-81.1108l0,25.1926l77.6969,0c8.0051,0 15.0685,-3.414 15.0685,-12.714c0,-9.3001 -7.1811,-12.4786 -15.0685,-12.4786l-77.6969,0Zm535.4022,13.6558l0.1177,-0.1177c0,24.9572 -14.5976,41.3206 -44.4991,44.4991l43.5573,55.6828l-48.7371,0l-39.3193,-55.4473l-42.9687,0l0,55.4473l-34.9636,0l0,-144.9165l113.1314,0c35.9054,0 53.6815,17.1875 53.6815,44.8523Zm-53.9169,12.4786c10.2419,0 16.952,-4.4735 16.952,-13.5381c0,-8.1229 -6.5925,-12.4786 -16.952,-12.4786l-77.9323,0l0,26.0167l77.9323,0Zm324.5611,28.3711l0,26.1344l120.5479,0l0,33.08l-155.7469,0l0,-144.9165l152.6861,0l0,29.9015l-117.4871,0l0,25.5458l103.125,0l0,30.2547l-103.125,0Zm517.3906,14.5976l36.0231,-100.2996l39.7902,0l-53.9169,144.9165l-41.9092,0l-34.7282,-92.7654l-33.7864,92.7654l-40.4966,0l-53.9169,-144.9165l40.1434,0l35.199,100.2996l36.494,-100.2996l33.5509,0l37.5535,100.2996Zm341.3954,-100.2996l0,144.9165l-35.199,0l0,-144.9165l35.199,0Zm379.0666,96.4148l0,-96.4148l36.9649,0l0,144.9165l-36.6117,0l-97.7097,-99.8287l0,99.8287l-36.8472,0l0,-144.9165l37.318,0l96.8857,96.4148Zm363.7627,-70.1626l-0.1177,0c-32.4235,0.0429 -52.9751,17.8103 -52.9751,46.1472c0,28.3711 19.5419,46.1472 53.446,46.1472c18.247,0 38.8484,-2.3545 46.3827,-9.1824l0,-13.5381l-33.5509,0l0,-29.4306l68.75,0l0,66.9841c-11.7723,7.5342 -38.8484,16.3634 -84.1716,16.3634c-48.5017,0 -86.7615,-28.3711 -86.7615,-77.3437c0,-48.9726 40.732,-77.1083 88.8805,-77.1083c37.9067,0 72.5171,11.6545 83.7007,20.0128l-16.4812,30.4901c-22.0953,-13.7508 -43.3693,-19.5229 -67.1019,-19.5419Zm-379.6552,-151.7444l0.2354,-0.4709l-158.69,0c-4.3557,0 -7.4165,-4.3557 -5.8861,-8.476c1.5304,-4.238 3.414,-9.1824 4.4735,-12.5963c11.6545,-35.3168 17.5407,-72.3994 17.5407,-109.7174l0,-122.4315c0,-34.4927 -27.9002,-62.5107 -62.5107,-62.5107l-57.4486,0c-3.5317,0 -6.357,2.8253 -6.357,6.357l0,178.7028c0,39.0839 6.5925,77.9323 19.3065,114.7795c1.7658,5.2975 1.8836,10.0064 -1.4127,13.1849c-3.2962,3.1785 -11.6545,2.9431 -11.6545,2.9431l-149.9785,0c-7.4165,0 -5.7684,-5.6507 -4.7089,-8.3583c14.5976,-39.0839 22.0141,-80.6399 22.0141,-122.4315l0,-475.0105c0,-40.3788 -7.4165,-80.5222 -21.8964,-118.3112c-1.5304,-3.8848 1.6481,-8.1229 5.8861,-7.7697c44.0282,3.8848 127.1404,10.595 167.6369,13.5381c12.5963,0.9418 25.1926,1.7658 37.9067,2.5899c12.5963,0.8241 25.1926,1.5304 37.9067,2.3545c35.9054,2.0013 91.9413,5.0621 134.2037,7.0634c3.5317,0.2354 8.7115,0.5886 12.4786,0.5886c5.4152,0 4.9443,6.4747 4.9443,6.4747l0,225.6741c0,23.0736 -6.2393,44.6168 -17.0698,63.217c-18.0116,31.1965 -49.0903,54.0347 -85.8197,60.9803c-3.5317,0.7063 -8.8292,1.1772 -13.5381,1.5304c-5.4152,0.3532 -10.0064,0.5886 -10.0064,0.5886c5.8861,0 11.6545,0.3532 17.4229,1.1772c61.5689,8.476 108.8934,61.3334 108.8934,125.1391l0,90.2932c0,37.318 5.8861,74.4007 17.5407,109.8351c1.0595,3.414 2.9431,8.3583 4.4735,12.5963c1.5304,4.1203 -1.5304,8.476 -5.8861,8.476Zm-142.562,-441.5773l0,-201.1878c0,-3.414 -2.7076,-6.1216 -6.0039,-6.357c-6.4747,-0.4709 -12.9495,-0.8241 -19.3065,-1.1772c-12.714,-0.7063 -25.3103,-1.5304 -37.9067,-2.3545c-12.714,-0.8241 -25.3103,-1.6481 -37.9067,-2.4722c-6.1216,-0.4709 -12.3609,-0.8241 -18.4824,-1.2949c-3.6494,-0.3532 -6.7102,2.5899 -6.7102,6.2393l0,264.758c0,3.5317 2.8253,6.357 6.357,6.357l57.4486,0c34.4927,0 62.5107,-27.9002 62.5107,-62.5107Zm-334.8029,-281.9455c-12.4786,35.3168 -18.8356,72.3994 -18.8356,109.8351l0,482.5447c0,41.9092 7.5342,83.4653 22.0141,122.6669c1.5304,4.238 -1.4127,8.5937 -5.8861,8.5937l-158.8077,0c-4.3557,0 -7.4165,-4.238 -6.0039,-8.3583c1.5304,-4.3557 3.2962,-9.4178 4.3557,-12.8318c11.89,-38.2598 18.0116,-78.0501 18.0116,-118.1934l0,-473.1269c0,-49.208 -4.0026,-99.711 -23.3091,-145.0342c-0.8241,-1.8836 -0.8241,-3.2962 0.2354,-4.3557c0.9418,-0.9418 3.1785,-0.1177 3.1785,-0.1177l2.3545,0.3532c5.6507,0.8241 11.3014,1.6481 17.0698,2.4722l7.652,1.0595c2.4722,0.3532 5.0621,0.7063 7.652,1.0595c34.2573,4.7089 70.3981,9.1824 108.3047,13.4204c9.3001,1.0595 17.4229,1.8836 17.4229,1.8836l2.8253,0.3532c4.1203,0.4709 6.7102,4.7089 5.1798,8.5937c-1.1772,3.0608 -2.3545,6.1216 -3.414,9.1824Zm-934.1284,708.572l0.1177,0.1177c0.7063,2.2367 1.5304,4.3557 2.3545,6.5925c1.5304,4.1203 -1.5304,8.476 -5.8861,8.476l-158.8077,0c-4.3557,0 -7.4165,-4.238 -6.0039,-8.3583c1.2949,-3.8848 2.8253,-8.2406 3.7671,-11.3014c12.2431,-38.7307 18.4824,-79.1096 18.4824,-119.7238l0,-479.8371c0,-37.0826 -6.7102,-73.812 -20.0128,-108.4225c-1.5304,-4.0026 1.0595,-8.2406 5.2975,-8.7115c54.3878,-5.4152 105.5971,-11.4191 153.5102,-17.6584c4.5912,-0.5886 8.1229,3.7671 6.5925,8.2406c-12.5963,36.9649 -19.0711,75.8133 -19.0711,115.0149l0,499.3791c0,39.5548 6.7102,78.8741 19.6597,116.1922Zm-231.0894,14.9508l0.1177,-0.2354l-158.69,0c-4.3557,0 -7.4165,-4.238 -6.0039,-8.3583c1.2949,-3.5317 2.5899,-7.5342 3.5317,-10.3596c12.3609,-38.9662 18.7179,-79.5804 18.7179,-120.5479l0,-163.8698c0,-6.9456 -5.6507,-12.5963 -12.5963,-12.5963l-101.1237,0c-6.9456,0 -12.5963,5.6507 -12.5963,12.5963l0,171.9926c0,41.9092 7.5342,83.4653 22.0141,122.6669c1.5304,4.238 -1.4127,8.5937 -5.8861,8.5937l-161.1622,0c0,0 -2.2367,0.4709 -4.0026,-2.0013c-1.7658,-2.4722 0.5886,-6.7102 1.4127,-9.1824c1.2949,-3.8848 2.5899,-7.8874 3.7671,-11.7723c1.5304,-4.7089 2.8253,-9.4178 4.1203,-14.2444c8.8292,-33.1978 13.3026,-67.5727 13.3026,-102.0655l0,-437.1038c0,-40.4966 -7.2988,-80.7577 -21.5432,-118.6643c-1.6481,-4.1203 1.2949,-8.5937 5.7684,-8.8292c53.6815,-2.119 106.068,-4.7089 157.0419,-7.5342c4.5912,-0.2354 7.8874,4.3557 6.2393,8.5937c-0.8241,2.3545 -1.6481,4.4735 -2.119,5.7684c-12.5963,35.9054 -19.0711,73.812 -19.0711,111.9541l0,193.5359c0,6.9456 5.6507,12.5963 12.5963,12.5963l101.1237,0c6.9456,0 12.5963,-5.6507 12.5963,-12.5963l0,-200.4815c0,-39.9079 -7.1811,-79.345 -21.3078,-116.5453c-1.5304,-4.1203 1.2949,-8.5937 5.6507,-8.8292c55.3296,-3.6494 108.6579,-7.8874 159.6318,-12.3609c3.1785,-0.2354 5.533,2.9431 4.3557,5.8861c-14.4799,37.5535 -21.8964,77.5792 -21.8964,117.8403l0,474.8928c0,36.0231 5.533,71.693 16.2457,105.8326c1.7658,5.6507 3.6494,11.3014 5.7684,16.952c1.4127,4.1203 -1.6481,8.476 -6.0039,8.476Zm915.5283,-2.0013l0.3532,-0.1177c-1.6481,2.3545 -8.1229,2.0013 -8.1229,2.0013l-193.7713,-0.2354c-4.4735,0 -7.5342,-4.5912 -5.8861,-8.7115c0.4709,-1.1772 0.9418,-2.3545 1.2949,-3.2962c2.3545,-6.0039 4.3557,-12.1254 6.1216,-18.3647c9.0646,-32.256 11.1836,-66.2778 5.8861,-99.5933l-78.5209,-546.5858c-0.3532,-1.7658 -2.9431,-1.7658 -3.1785,0l-78.5209,546.5858c-6.357,40.2611 -2.0013,81.3463 12.4786,119.2529c0.2354,0.5886 0.4709,1.2949 0.8241,2.0013c1.6481,4.1203 -1.4127,8.7115 -5.8861,8.7115l-196.8321,0.2354c-4.238,0 -7.1811,-4.0026 -6.0039,-8.1229c11.6545,-39.3193 16.0103,-80.4045 12.8318,-121.2542l-39.3193,-510.5627c-3.1785,-40.732 -13.6558,-80.5222 -31.0788,-117.3694c-1.8836,-3.8848 0.5886,-8.5937 4.9443,-9.3001c58.8613,-9.3001 110.8946,-19.1888 155.276,-29.7838c4.8266,-1.1772 9.0646,3.5317 7.2988,8.3583c-15.1862,42.6156 -15.6571,89.116 -13.6558,134.3214l5.1798,120.7833l9.1824,265.2289c0.1177,2.0013 2.8253,2.119 3.1785,0.2354l86.7615,-554.5909c0.3532,-2.2367 1.8836,-4.1203 4.0026,-4.9443c33.5509,-13.3026 55.9182,-27.0762 65.4537,-41.4383c2.5899,-3.8848 8.1229,-3.8848 10.7128,0c9.5355,14.3622 31.9028,28.2534 65.4537,41.4383c2.119,0.8241 3.6494,2.7076 4.0026,4.9443l86.7615,554.5909c0.3532,1.8836 3.1785,1.6481 3.1785,-0.2354l9.1824,-265.2289l5.1798,-120.9011c2.0013,-45.2055 1.5304,-91.5881 -13.6558,-134.2037c-1.7658,-4.8266 2.4722,-9.5355 7.2988,-8.3583c44.2637,10.595 96.4148,20.4837 155.276,29.7838c4.3557,0.7063 6.8279,5.2975 4.9443,9.3001c-17.4229,36.9649 -27.9002,76.7551 -31.0788,117.4871l-39.3193,510.5627c-3.1785,40.3788 1.0595,80.8754 12.3609,119.7238c0.9418,3.2962 1.0595,5.2975 -0.5886,7.652Zm1189.4687,-250.6313l0.2354,-0.4709c0.9418,0 1.7658,0.7063 1.7658,1.6481l0,244.392c0,3.5317 -2.8253,6.357 -6.357,6.357l-388.9553,0.3532c-4.4735,0 -7.5342,-4.4735 -5.8861,-8.7115c11.5368,-29.6661 21.8964,-59.8031 21.8964,-91.7059l0,-120.7833c0,-64.1588 48.0308,-117.1339 110.0706,-125.1391c5.2975,-0.7063 10.7128,-1.1772 16.2457,-1.1772c-46.8536,0 -87.4679,-25.4281 -109.3642,-63.217c-1.0595,-1.6481 -1.7658,-3.414 -2.7076,-5.1798c-0.2354,-0.3532 -0.3532,-0.8241 -0.5886,-1.1772c-1.5304,-2.9431 -2.8253,-5.8861 -4.1203,-8.9469c-0.3532,-0.8241 -0.7063,-1.7658 -1.0595,-2.7076c-1.0595,-2.7076 -2.119,-5.4152 -2.9431,-8.2406c-0.5886,-1.7658 -0.9418,-3.414 -1.4127,-5.1798c-0.4709,-1.6481 -0.9418,-3.414 -1.2949,-5.0621c-0.9418,-4.4735 -1.7658,-9.0646 -2.2367,-13.6558c-0.1177,-0.3532 -0.1177,-0.8241 -0.1177,-1.1772c-0.3532,-3.8848 -0.5886,-7.7697 -0.5886,-11.7723l0,-96.6502c0,-39.5548 -6.5925,-78.7564 -19.5419,-115.9567c-1.7658,-5.0621 -9.3001,-15.1862 2.4722,-15.1862c11.7723,0 11.4191,0.3532 17.0698,0.5886c40.0257,1.4127 82.1703,2.5899 126.3163,3.5317c4.7089,0.1177 9.3001,0.3532 14.009,0.3532c3.0608,0.1177 6.2393,0.2354 9.4178,0.2354c33.1978,0.5886 67.455,1.1772 102.8895,1.5304c38.7307,0.4709 78.7564,0.7063 119.9593,0.7063c7.4165,0 6.357,9.0646 6.357,9.0646l0,241.449c0,0.9418 -0.7063,1.6481 -1.6481,1.6481c-68.9854,-0.9418 -124.6682,-57.0954 -124.6682,-126.3163l0,-56.9777c0,-3.5317 -2.8253,-6.357 -6.2393,-6.357l-113.6023,-1.1772c-3.5317,0 -6.357,2.8253 -6.357,6.357l0,185.0599c0,34.9636 28.3711,63.217 63.217,63.217l56.86,0c3.5317,0 6.357,2.8253 6.357,6.357l0,50.503c0,3.5317 -2.8253,6.357 -6.357,6.357l-56.86,0c-34.9636,0 -63.217,28.3711 -63.217,63.217l0,183.1763c0,3.5317 2.8253,6.357 6.357,6.357l113.72,0c3.414,0 6.2393,-2.8253 6.2393,-6.357l0,-56.86c0,-69.2209 55.6828,-125.4922 124.6682,-126.3163Zm-1461.8786,-666.0742l0,0.1177c-2.3545,0.8241 -4.7089,-1.2949 -4.0026,-3.7671c4.9443,-18.8356 19.3065,-79.4627 2.5899,-113.6023c-1.2949,-2.5899 1.0595,-5.4152 3.7671,-4.4735l172.4635,57.4486c2.8253,0.9418 2.8253,5.0621 0,6.0039l-174.818,58.2727Zm1513.6418,185.3703l0,6.8857l-11.5377,0l0,34.4284l-7.9995,0l0,-34.4284l-11.6916,0l0,-6.8857l31.2288,0Zm48.4584,0l0,41.314l-6.9226,0l0,-27.9477l-10.7685,27.9477l-8.1533,0l-10.6147,-27.9477l0,27.9477l-7.0765,0l0,-41.314l9.8455,0l11.9992,31.8631l12.1531,-31.8631l9.5379,0Z" style="fill:#00b5f0;"/></g></svg>